<?xml version="1.0" standalone="no"?>
<!DOCTYPE svg PUBLIC "-//W3C//DTD SVG 20010904//EN"
 "http://www.w3.org/TR/2001/REC-SVG-20010904/DTD/svg10.dtd">
<svg version="1.0" xmlns="http://www.w3.org/2000/svg"
 width="465.000000pt" height="91.000000pt" viewBox="0 0 465.000000 91.000000"
 preserveAspectRatio="xMidYMid meet">

<g transform="translate(0.000000,91.000000) scale(0.100000,-0.100000)"
fill="#000000" stroke="none">
<path d="M690 892 c0 -24 -45 -70 -76 -78 -26 -7 -25 -7 13 -28 21 -12 45 -35
53 -53 8 -18 17 -33 20 -33 3 0 12 15 20 33 8 17 31 41 51 52 l37 20 -38 16
c-28 12 -41 26 -51 53 -14 38 -29 48 -29 18z"/>
<path d="M210 856 c0 -80 22 -234 42 -296 43 -132 99 -184 200 -183 l59 1 -20
-34 c-23 -38 -16 -80 25 -151 26 -44 109 -123 130 -123 15 0 44 88 44 132 0
50 15 29 28 -39 12 -64 25 -93 42 -93 17 0 102 85 126 126 43 72 49 109 24
148 l-20 34 57 -1 c72 0 111 19 152 75 51 69 90 232 91 376 0 73 -4 74 -102
41 -72 -24 -147 -72 -200 -126 -42 -44 -128 -171 -128 -190 0 -20 -18 -16 -30
7 -14 25 -28 25 -56 -1 l-22 -20 -37 68 c-78 140 -232 260 -357 278 l-48 7 0
-36z m467 -408 l23 -21 23 21 c29 27 71 28 97 2 34 -34 25 -58 -50 -134 l-70
-71 -70 71 c-75 77 -84 100 -48 134 28 26 66 26 95 -2z"/>
<path d="M1826 793 c-14 -27 -263 -566 -273 -591 -3 -7 3 -12 17 -12 18 0 29
17 63 90 l41 90 186 0 187 0 41 -90 c33 -73 45 -90 62 -90 12 0 20 4 18 9 -1
6 -66 147 -143 315 -122 266 -143 305 -162 306 -15 0 -28 -10 -37 -27z m119
-199 c44 -97 82 -180 83 -185 4 -10 -321 -13 -330 -4 -6 6 154 364 162 364 3
0 41 -79 85 -175z"/>
<path d="M2310 505 c0 -308 0 -315 20 -315 20 0 20 7 20 277 0 243 2 275 15
263 8 -8 106 -132 218 -275 140 -179 210 -261 225 -263 l22 -3 0 315 c0 309 0
316 -20 316 -20 0 -20 -7 -20 -277 l-1 -278 -27 31 c-15 16 -114 141 -220 277
-135 173 -199 247 -212 247 -19 0 -20 -9 -20 -315z"/>
<path d="M3070 505 c0 -308 0 -315 20 -315 20 0 20 7 20 275 0 151 3 275 8
274 4 0 103 -124 220 -275 148 -189 220 -274 233 -274 18 0 19 11 19 315 0
307 0 315 -20 315 -19 0 -20 -8 -22 -277 l-3 -278 -215 277 c-166 213 -220
277 -237 277 l-23 1 0 -315z"/>
<path d="M4016 811 c-5 -8 -272 -582 -283 -609 -3 -7 3 -12 18 -12 20 0 30 14
63 90 l40 90 186 0 187 0 41 -90 c33 -72 46 -90 63 -90 26 0 40 -35 -128 329
-119 260 -141 301 -160 301 -12 0 -24 -4 -27 -9z m109 -216 c42 -93 79 -176
82 -182 4 -10 -32 -13 -161 -13 -117 0 -166 3 -166 11 0 21 158 364 165 357 1
-1 38 -79 80 -173z"/>
<path d="M383 70 c-12 -27 -18 -50 -13 -50 5 0 14 16 20 35 6 19 15 35 20 35
5 0 14 -16 20 -35 6 -19 15 -35 20 -35 5 0 -1 23 -13 50 -11 28 -24 50 -27 50
-3 0 -16 -22 -27 -50z"/>
<path d="M962 70 c1 -44 2 -47 5 -17 l4 39 34 -39 34 -38 -1 55 c-1 51 -1 52
-7 15 l-6 -39 -32 39 -32 40 1 -55z"/>
</g>
</svg>
